<?xml version="1.0" standalone="no"?>
<!DOCTYPE svg PUBLIC "-//W3C//DTD SVG 20010904//EN"
 "http://www.w3.org/TR/2001/REC-SVG-20010904/DTD/svg10.dtd">
<svg version="1.0" xmlns="http://www.w3.org/2000/svg"
 width="256.000000pt" height="256.000000pt" viewBox="0 0 256.000000 256.000000"
 preserveAspectRatio="xMidYMid meet">
<metadata>
Created by potrace 1.14, written by Peter Selinger 2001-2017
</metadata>
<g transform="translate(0.000000,256.000000) scale(0.100000,-0.100000)"
fill="#000000" stroke="none">
<path d="M1210 2452 c-460 -34 -852 -319 -1020 -740 -17 -42 -32 -86 -35 -97
-2 -11 -11 -48 -20 -83 -20 -83 -25 -137 -26 -252 0 -89 6 -166 16 -200 2 -8
7 -31 10 -50 10 -64 56 -194 97 -275 156 -310 432 -530 773 -614 106 -26 161
-32 275 -32 113 -1 168 6 275 32 455 113 786 461 881 929 4 19 8 107 10 195 4
219 -27 357 -122 544 -72 143 -216 321 -315 388 -13 9 -26 20 -29 24 -10 13
-116 77 -185 111 -170 85 -407 134 -585 120z m114 -437 c60 -29 61 -30 63
-365 1 -168 2 -310 2 -316 1 -7 69 -80 151 -163 151 -152 173 -181 165 -223
-13 -69 -55 -96 -138 -89 -10 0 -100 83 -201 184 -134 133 -184 190 -188 212
-3 17 -5 181 -4 365 1 309 2 337 20 363 15 23 53 42 89 46 5 1 23 -6 41 -14z"/>
</g>
</svg>
